<?xml version="1.0" encoding="utf-8"?>
<!-- Generator: Adobe Illustrator 16.0.0, SVG Export Plug-In . SVG Version: 6.00 Build 0)  -->
<!DOCTYPE svg PUBLIC "-//W3C//DTD SVG 1.1//EN" "http://www.w3.org/Graphics/SVG/1.1/DTD/svg11.dtd">
<svg version="1.1" id="Lager_1" xmlns="http://www.w3.org/2000/svg" xmlns:xlink="http://www.w3.org/1999/xlink" x="0px" y="0px"
	 width="305px" height="284px" viewBox="0 0 305 284" enable-background="new 0 0 305 284" xml:space="preserve">
<g>
	<path fill="#FFFFFF" d="M185.742,274.211c1.337,1.688,6.125,5.422,13.592,5.422c11.971,0,17.606-7.676,17.606-15.777
		c0-8.238-6.904-12.746-10.423-14.859c-4.227-2.534-5.773-3.874-5.773-6.34c0-2.113,2.108-3.592,4.505-3.592
		c3.732,0,7.393,2.747,7.89,3.171c0.489,0.421,1.688,0.352,2.255-0.355l4.433-5.422c0.565-0.634,0.283-1.83-0.42-2.396
		c-1.902-1.547-6.691-5.139-13.382-5.139c-11.41,0-16.69,7.252-16.69,14.859c0,7.326,6.053,11.762,10.493,14.719
		c3.025,1.972,4.577,3.875,4.646,6.412c0.073,2.322-1.902,4.296-4.508,4.296c-3.8,0-7.254-2.396-8.171-3.101
		c-0.488-0.352-1.62-0.493-2.25,0.424l-3.802,5.706C185.318,272.874,185.177,273.504,185.742,274.211 M140.313,274.211
		c1.337,1.688,6.127,5.422,13.592,5.422c11.975,0,17.608-7.676,17.608-15.777c0-8.238-6.902-12.746-10.425-14.859
		c-4.225-2.534-5.773-3.874-5.773-6.34c0-2.113,2.113-3.592,4.505-3.592c3.736,0,7.396,2.747,7.89,3.171
		c0.493,0.421,1.688,0.352,2.252-0.355l4.439-5.422c0.566-0.634,0.283-1.83-0.42-2.396c-1.902-1.547-6.695-5.139-13.386-5.139
		c-11.408,0-16.69,7.252-16.69,14.859c0,7.326,6.056,11.762,10.493,14.719c3.03,1.972,4.581,3.875,4.65,6.412
		c0.068,2.322-1.903,4.296-4.509,4.296c-3.802,0-7.255-2.396-8.171-3.101c-0.492-0.352-1.62-0.493-2.254,0.424l-3.802,5.706
		C139.89,272.874,139.75,273.504,140.313,274.211 M102.702,268.365c-5.563,0-9.506-5.496-9.506-12.045
		c0-8.734,6.621-16.129,13.452-16.129c5.634,0,9.578,5.496,9.578,12.113C116.226,261.039,109.677,268.365,102.702,268.365
		 M81.646,257.799c0,12.113,8.803,21.834,19.649,21.834c14.789,0,26.482-12.819,26.482-28.665c0-12.187-8.733-22.044-19.651-22.044
		C93.478,228.924,81.646,241.88,81.646,257.799"/>
	<path fill="#FFFFFF" d="M201.905,203.388c-0.068,0.634,0.489,1.2,1.055,1.2h8.666c0.703,0,1.265-0.635,1.406-1.342l3.171-25.987
		h0.068l20.985,28.031h1.766c0.635,0,1.265-0.562,1.337-1.269l6.619-47.537c0.069-0.634-0.492-1.2-1.123-1.2h-8.599
		c-0.703,0-1.265,0.634-1.337,1.337l-3.378,25.146h-0.072l-20.989-27.187h-1.547c-0.635,0-1.342,0.562-1.41,1.27L201.905,203.388z
		 M163.942,187.683l5.636-11.761h0.069l2.183,11.761H163.942z M145.35,204.588h8.028c1.479,0,2.394-0.776,2.817-1.693l2.746-5.633
		h15.566l1.197,5.564c0.278,1.41,0.985,1.762,2.254,1.762h7.959c0.985,0,1.62-0.918,1.337-1.835l-13.243-47.396
		c-0.139-0.423-0.49-0.776-0.985-0.776h-0.635c-0.562,0-0.913,0.353-1.193,0.776l-26.694,47.396
		C144.011,203.67,144.363,204.588,145.35,204.588 M114.43,203.246c-0.07,0.707,0.424,1.342,1.056,1.342h8.734
		c0.635,0,1.339-0.635,1.409-1.342l5.281-37.607h8.665c0.702,0,1.266-0.634,1.337-1.337l1.127-7.68
		c0.07-0.703-0.352-1.337-1.057-1.337h-28.454c-0.634,0-1.269,0.634-1.337,1.337l-1.127,7.68c-0.07,0.703,0.351,1.337,1.057,1.337
		h8.592L114.43,203.246z M55.129,186.272c-1.549,10.707,6.197,19.018,15.636,19.018c11.69,0,19.367-7.607,20.987-19.018
		l4.084-29.651c0.072-0.703-0.421-1.337-1.056-1.337h-8.875c-0.703,0-1.267,0.634-1.337,1.337l-4.014,29.089
		c-0.705,4.929-4.156,8.312-8.382,8.312c-3.875,0-6.339-3.383-5.634-8.312l4.014-29.089c0.071-0.703-0.421-1.337-1.056-1.337h-8.946
		c-0.632,0-1.266,0.634-1.337,1.337L55.129,186.272z"/>
	<path fill="#FFFFFF" d="M260.008,102l1.547-10.986h8.098c2.537,0,3.806,2.044,3.806,4.509c0,3.378-2.396,6.477-5.704,6.477H260.008
		z M245.213,128.904c-0.137,0.707,0.283,1.341,0.986,1.341h8.734c0.635,0,1.269-0.635,1.337-1.341l2.537-17.959h3.101l5.773,18.666
		c0.072,0.352,0.496,0.635,0.985,0.635h9.086c1.055,0,1.688-1.128,1.337-2.045l-6.124-17.89c7.256-2.25,11.55-8.59,11.55-16.129
		c0-7.252-5.001-13.24-12.395-13.24h-19.018c-0.635,0-1.269,0.634-1.341,1.338L245.213,128.904z M197.748,128.904
		c-0.137,0.707,0.283,1.341,0.986,1.341h26.556c0.703,0,1.338-0.635,1.406-1.341l1.055-7.677c0.072-0.703-0.283-1.337-0.985-1.337
		h-16.76l1.337-9.507h13.593c0.634,0,1.268-0.565,1.409-1.337l1.123-7.677c0.073-0.707-0.42-1.341-1.054-1.341h-13.665l1.269-8.731
		h16.764c0.707,0,1.269-0.634,1.337-1.337l1.127-7.68c0.069-0.704-0.352-1.338-1.055-1.338h-26.552
		c-0.635,0-1.269,0.634-1.342,1.338L197.748,128.904z M155.422,128.904c-0.071,0.707,0.352,1.341,1.057,1.341h24.228
		c0.703,0,1.337-0.635,1.406-1.341l1.059-7.677c0.072-0.703-0.279-1.337-0.986-1.337h-14.367l5.281-37.61
		c0.071-0.704-0.352-1.338-0.985-1.338h-8.732c-0.703,0-1.337,0.634-1.409,1.338L155.422,128.904z M113.092,128.904
		c-0.07,0.707,0.353,1.341,1.056,1.341h24.228c0.704,0,1.34-0.635,1.41-1.341l1.058-7.677c0.069-0.703-0.283-1.337-0.986-1.337
		h-14.369l5.282-37.61c0.071-0.704-0.352-1.338-0.986-1.338h-8.733c-0.704,0-1.337,0.634-1.407,1.338L113.092,128.904z
		 M75.132,113.34l5.634-11.761h0.07l2.182,11.761H75.132z M56.539,130.245h8.027c1.479,0,2.395-0.776,2.818-1.693l2.746-5.632
		h15.565l1.197,5.563c0.281,1.41,0.986,1.762,2.254,1.762h7.957c0.986,0,1.62-0.917,1.34-1.834L85.203,81.014
		c-0.141-0.424-0.493-0.776-0.986-0.776h-0.634c-0.564,0-0.916,0.352-1.196,0.776l-26.694,47.397
		C55.2,129.328,55.551,130.245,56.539,130.245 M16.535,128.904c-0.142,0.707,0.28,1.341,0.986,1.341h8.591
		c0.635,0,1.27-0.635,1.411-1.341l2.394-17.115H43.58c0.632,0,1.267-0.63,1.337-1.337l1.127-7.677
		c0.071-0.703-0.422-1.337-1.056-1.337H31.395l1.408-10.141h16.763c0.705,0,1.27-0.634,1.338-1.337l1.127-7.68
		c0.07-0.704-0.352-1.338-1.057-1.338h-26.55c-0.634,0-1.269,0.634-1.339,1.338L16.535,128.904z"/>
	<path fill="#FFFFFF" d="M272.189,54.561c-0.068,0.707,0.421,1.341,1.055,1.341h8.734c0.635,0,1.338-0.634,1.407-1.341l5.285-37.606
		h8.661c0.703,0,1.269-0.634,1.338-1.337l1.131-7.681c0.068-0.703-0.355-1.337-1.059-1.337h-28.455
		c-0.635,0-1.269,0.634-1.337,1.337l-1.128,7.681c-0.068,0.703,0.355,1.337,1.059,1.337h8.59L272.189,54.561z M219.861,54.561
		c-0.142,0.707,0.282,1.341,0.985,1.341h26.552c0.703,0,1.338-0.634,1.406-1.341l1.059-7.676c0.072-0.704-0.278-1.338-0.985-1.338
		h-16.764l1.337-9.506h13.597c0.634,0,1.269-0.565,1.405-1.338l1.132-7.676c0.068-0.707-0.425-1.341-1.059-1.341h-13.665
		l1.269-8.731h16.764c0.703,0,1.269-0.634,1.337-1.337l1.127-7.681c0.069-0.703-0.355-1.337-1.059-1.337h-26.548
		c-0.634,0-1.269,0.634-1.341,1.337L219.861,54.561z M160.424,54.702c-0.072,0.634,0.489,1.2,1.055,1.2h8.662
		c0.707,0,1.269-0.634,1.409-1.341l3.169-25.986h0.071l20.987,28.031h1.761c0.635,0,1.269-0.562,1.342-1.269l6.617-47.538
		c0.068-0.634-0.493-1.2-1.127-1.2h-8.593c-0.703,0-1.27,0.634-1.338,1.337l-3.379,25.146h-0.072L169.999,5.896h-1.552
		c-0.63,0-1.337,0.562-1.406,1.269L160.424,54.702z M105.838,34.138c0,12.468,8.593,22.467,19.511,22.467
		c9.154,0,16.339-4.65,16.339-4.65c0.283-0.21,0.635-0.493,0.704-1.124l2.606-18.949c0.071-0.703-0.354-1.337-0.986-1.337h-13.17
		c-0.706,0-1.269,0.566-1.409,1.337l-0.985,6.974c-0.07,0.703,0.352,1.269,1.057,1.269h3.238l-0.563,4.084
		c-1.618,1.055-3.802,1.127-4.507,1.127c-5.563,0-9.578-5.495-9.578-12.044c0-8.735,6.62-16.197,13.452-16.197
		c2.888,0,5.706,1.196,7.606,3.099c0.423,0.42,1.269,0.493,1.83-0.073l5.775-5.705c0.563-0.562,0.635-1.406,0.07-1.899
		c-3.733-4.158-9.506-6.622-14.579-6.622C116.897,5.896,105.838,18.643,105.838,34.138 M58.44,54.561
		c-0.143,0.707,0.28,1.341,0.986,1.341h26.552c0.703,0,1.337-0.634,1.407-1.341l1.057-7.676c0.07-0.704-0.283-1.338-0.986-1.338
		H70.694l1.34-9.506h13.591c0.634,0,1.269-0.565,1.41-1.338l1.126-7.676c0.07-0.707-0.423-1.341-1.055-1.341H73.441l1.267-8.731
		H91.47c0.706,0,1.269-0.634,1.338-1.337l1.127-7.681c0.07-0.703-0.352-1.337-1.057-1.337H66.328c-0.634,0-1.269,0.634-1.338,1.337
		L58.44,54.561z M20.268,27.657l1.549-10.985h8.099c2.535,0,3.803,2.044,3.803,4.509c0,3.378-2.396,6.477-5.704,6.477H20.268z
		 M5.476,54.561c-0.141,0.707,0.283,1.341,0.986,1.341h8.733c0.634,0,1.269-0.634,1.34-1.341l2.535-17.958h3.099l5.775,18.666
		c0.072,0.352,0.493,0.634,0.986,0.634h9.085c1.057,0,1.691-1.127,1.34-2.044l-6.127-17.89c7.254-2.251,11.549-8.59,11.549-16.129
		c0-7.252-5-13.24-12.396-13.24H13.364c-0.634,0-1.269,0.634-1.339,1.337L5.476,54.561z"/>
</g>
</svg>
