<?xml version="1.0" encoding="utf-8"?>
<!-- Generator: Adobe Illustrator 16.0.0, SVG Export Plug-In . SVG Version: 6.00 Build 0)  -->
<!DOCTYPE svg PUBLIC "-//W3C//DTD SVG 1.1//EN" "http://www.w3.org/Graphics/SVG/1.1/DTD/svg11.dtd">
<svg version="1.1" id="Lager_1" xmlns="http://www.w3.org/2000/svg" xmlns:xlink="http://www.w3.org/1999/xlink" x="0px" y="0px"
	 width="841.89px" height="220.872px" viewBox="0 0 841.89 220.872" enable-background="new 0 0 841.89 220.872"
	 xml:space="preserve">
<g>
	<path fill="#FFFFFF" d="M662.77,181.476c0,1.011,0.908,1.919,1.918,1.919h12.016c1.111,0,1.92-0.908,1.92-1.919v-37.664h0.1
		l39.887,40.089c0.201,0.201,1.01,0.505,1.312,0.505h1.615c1.01,0,1.92-0.809,1.92-1.818v-67.958c0-1.01-0.91-1.918-1.92-1.918
		H709.42c-1.109,0-1.918,0.909-1.918,1.918v35.846H707.4l-40.289-38.774h-2.525c-1.01,0-1.918,0.807-1.918,1.817L662.77,181.476z
		 M580.979,148.154c0-11.108,9.088-20.296,20.094-20.296c11.107,0,20.195,9.188,20.195,20.296c0,11.007-9.088,20.095-20.195,20.095
		C590.066,168.249,580.979,159.161,580.979,148.154 M564.822,148.154c0,20.196,16.057,36.251,36.25,36.251
		c20.195,0,36.354-16.055,36.354-36.251s-16.158-36.453-36.354-36.453C580.879,111.702,564.822,127.958,564.822,148.154
		 M497.977,176.629c2.322,2.323,9.592,7.776,22.721,7.776c14.842,0,23.83-10.502,23.83-20.902c0-13.733-12.521-19.893-20.398-23.023
		c-7.977-3.23-11.006-6.059-11.006-9.795c0-2.727,2.727-5.15,6.361-5.15c6.16,0,13.531,5.555,14.439,6.059
		c0.908,0.707,2.727-0.201,3.434-1.312l5.15-7.775c0.404-0.707,0.605-2.524-0.607-3.231c-3.027-2.221-11.105-7.573-21.607-7.573
		c-15.551,0-23.326,10.097-23.326,20.094c0,12.117,10.906,18.883,19.59,22.316c6.865,2.726,10.4,5.957,10.4,10.198
		c0,3.534-2.93,6.059-6.967,6.059c-6.666,0-13.936-5.352-14.34-5.554c-0.707-0.505-2.625-0.707-3.434,0.605l-4.746,8.382
		C496.664,175.216,496.967,175.62,497.977,176.629 M429.516,176.629c2.32,2.323,9.592,7.776,22.719,7.776
		c14.844,0,23.83-10.502,23.83-20.902c0-13.733-12.52-19.893-20.396-23.023c-7.977-3.23-11.008-6.059-11.008-9.795
		c0-2.727,2.727-5.15,6.363-5.15c6.16,0,13.531,5.555,14.439,6.059c0.908,0.707,2.727-0.201,3.432-1.312l5.152-7.775
		c0.402-0.707,0.604-2.524-0.607-3.231c-3.029-2.221-11.107-7.573-21.609-7.573c-15.549,0-23.324,10.097-23.324,20.094
		c0,12.117,10.904,18.883,19.588,22.316c6.867,2.726,10.402,5.957,10.402,10.198c0,3.534-2.93,6.059-6.969,6.059
		c-6.664,0-13.936-5.352-14.338-5.554c-0.707-0.505-2.627-0.707-3.434,0.605l-4.746,8.382
		C428.201,175.216,428.506,175.62,429.516,176.629 M368.325,181.476c0,1.011,0.807,1.919,1.917,1.919h37.969
		c1.11,0,1.918-0.908,1.918-1.919v-11.005c0-1.011-0.808-1.919-1.918-1.919h-24.033v-53.922c0-1.01-0.908-1.918-1.919-1.918h-12.017
		c-1.11,0-1.917,0.909-1.917,1.918V181.476z M303.396,142.903v-15.752h14.944c4.14,0,7.675,3.434,7.675,7.674
		s-3.535,8.078-7.675,8.078H303.396z M287.542,181.476c0,1.011,0.808,1.919,1.918,1.919h12.017c1.01,0,1.919-0.908,1.919-1.919
		v-25.748h6.968l13.43,26.759c0.202,0.403,0.808,0.908,1.616,0.908h13.43c1.716,0,2.423-1.615,1.716-2.927l-13.834-25.648
		c8.785-3.535,14.944-11.008,14.944-20.297c0-12.017-9.895-21.812-22.012-21.812H289.46c-1.11,0-1.918,0.909-1.918,1.918V181.476z
		 M224.635,159.161l7.573-16.662h0.101l7.674,16.662H224.635z M200.199,183.395h11.107c2.02,0,3.13-1.212,3.635-2.423l3.636-8.078
		h27.466l3.635,7.977c0.908,1.919,1.717,2.524,3.533,2.524h11.21c1.515,0,2.321-1.312,1.716-2.625l-31.605-67.958
		c-0.303-0.606-1.01-1.11-1.717-1.11h-1.01c-0.707,0-1.414,0.504-1.717,1.11l-31.605,67.958
		C197.875,182.082,198.683,183.395,200.199,183.395 M126.486,180.972c0,1.312,1.01,2.423,2.424,2.423h11.814
		c1.312,0,2.423-1.11,2.423-2.423v-30.091l23.326,31.706c0.201,0.303,1.11,0.708,1.817,0.708h13.935c1.919,0,3.03-2.222,1.919-3.737
		l-25.749-33.523l23.629-29.587c1.11-1.515,0.101-3.736-1.818-3.736h-12.723c-0.605,0-1.515,0.505-1.919,1.01l-22.417,27.97v-26.557
		c0-1.312-1.11-2.423-2.423-2.423H128.91c-1.414,0-2.424,1.111-2.424,2.423V180.972z"/>
	<path fill="#FFFFFF" d="M556.139,53.57l7.574-16.661h0.1l7.674,16.661H556.139z M531.701,77.805h11.107
		c2.02,0,3.131-1.212,3.637-2.423l3.635-8.078h27.465l3.635,7.978c0.91,1.918,1.717,2.524,3.535,2.524h11.207
		c1.516,0,2.324-1.312,1.719-2.625L566.035,7.222c-0.305-0.605-1.012-1.111-1.719-1.111h-1.008c-0.707,0-1.414,0.506-1.717,1.111
		l-31.607,67.958C529.381,76.492,530.188,77.805,531.701,77.805 M492.625,75.886c0,1.009,0.908,1.918,1.918,1.918h12.117
		c1.012,0,1.92-0.909,1.92-1.918V9.039c0-1.01-0.908-1.918-1.92-1.918h-12.117c-1.01,0-1.918,0.909-1.918,1.918V75.886z
		 M422.648,75.886c0,1.009,0.809,1.918,1.918,1.918h11.916c1.01,0,1.92-0.909,1.92-1.918V51.349h23.021
		c1.012,0,1.92-0.909,1.92-1.919V38.423c0-1.009-0.908-1.918-1.92-1.918h-23.021V21.964h27.971c1.109,0,1.916-0.909,1.916-1.918
		V9.039c0-1.01-0.807-1.918-1.916-1.918h-41.807c-1.109,0-1.918,0.909-1.918,1.918V75.886z M340.859,42.563
		c0-11.107,9.088-20.296,20.095-20.296c11.106,0,20.195,9.189,20.195,20.296c0,11.007-9.089,20.094-20.195,20.094
		C349.947,62.658,340.859,53.57,340.859,42.563 M324.703,42.563c0,20.196,16.055,36.25,36.251,36.25
		c20.195,0,36.351-16.055,36.351-36.25c0-20.195-16.155-36.453-36.351-36.453C340.757,6.11,324.703,22.368,324.703,42.563
		 M257.857,71.039c2.322,2.323,9.593,7.775,22.72,7.775c14.843,0,23.83-10.501,23.83-20.902c0-13.732-12.521-19.893-20.397-23.022
		c-7.977-3.232-11.006-6.059-11.006-9.795c0-2.727,2.727-5.15,6.361-5.15c6.159,0,13.531,5.554,14.439,6.059
		c0.909,0.707,2.727-0.202,3.434-1.312l5.149-7.776c0.404-0.707,0.606-2.524-0.605-3.231c-3.029-2.222-11.108-7.574-21.609-7.574
		c-15.551,0-23.326,10.098-23.326,20.095c0,12.118,10.906,18.883,19.59,22.315c6.866,2.727,10.4,5.959,10.4,10.199
		c0,3.534-2.928,6.059-6.967,6.059c-6.665,0-13.935-5.352-14.339-5.553c-0.707-0.505-2.625-0.707-3.433,0.605l-4.746,8.381
		C256.543,69.625,256.846,70.029,257.857,71.039"/>
	
		<line fill="none" stroke="#FFFFFF" stroke-width="1.6516" stroke-linecap="round" x1="39.208" y1="220.872" x2="810.734" y2="220.872"/>
</g>
</svg>
