<?xml version="1.0" encoding="utf-8"?>
<!-- Generator: Adobe Illustrator 19.1.0, SVG Export Plug-In . SVG Version: 6.00 Build 0)  -->
<svg version="1.1" id="Layer_1" xmlns="http://www.w3.org/2000/svg" xmlns:xlink="http://www.w3.org/1999/xlink" x="0px" y="0px"
	 viewBox="0 0 393.3 122.3" style="enable-background:new 0 0 393.3 122.3;" xml:space="preserve">
<style type="text/css">
	.st0{fill:#FFFFF4;}
</style>
<g>
	<g>
		<path class="st0" d="M92.6,21.8c0.6,8.3,8.3,20.6,17.9,20.6c10,0,8.8-9.8,3.6-13.2c-6.4-4.2-20.3-5.8-20.3-16.6
			c0-13.3,14.7-10.7,14.7-10.7c6,0.1,7.7,1.7,9.5,1.7c2.9,0,3.2-2.5,3.5-3.7h0.6v18.7h-0.6C121,16.6,115.9,6,108.4,5
			c-1.4-0.2-10.3-2-10.3,6.1c0,4.8,11.8,8.2,12.8,8.6c1.9,0.9,12.9,2.8,12.9,13.2c0,10.4-7.2,12.1-12.8,12.2
			c-5.6,0.2-8.7-1.9-12.1-4.7s-6.7,4.8-6.7,4.8h-0.5l0.1-23.5H92.6z"/>
		<path class="st0" d="M155.2,44.9c0,0-0.6,0.1-0.8,0.1c-0.3,0-0.8-0.1-0.8-0.1C134,43.8,136,21.8,136,21.8
			c0-17.1,12.5-19.6,17.4-20c0.2-0.1,1.6-0.1,1.7,0c4.9,0.4,17.5,2.9,17.5,20C172.7,21.8,174.7,43.8,155.2,44.9z M164.2,22.7
			c0-16-5.2-17.9-9.8-17.9c-4.7,0-9.8,1.9-9.8,17.9c0,17.2,5.4,19.2,9.8,19.2C158.9,41.9,164.2,39.8,164.2,22.7z"/>
	</g>
	<g>
		<path class="st0" d="M218.8,2.5l-0.1,13.3c-0.2,0-0.5,0-0.7,0c-1.3-8.3-8.6-10.1-12.2-10.1c-0.4,0-9.3,0-10.3,0V21h2.2
			c0,0,6.9,0.2,7.8-6.5c0.2,0,0.3,0,0.4,0v15.7c-0.2,0-0.3,0-0.5,0c-0.5-2.2-2.2-6-7.7-6c-0.8,0-1.6,0-2.2,0v8.6
			c0.2,2.3,1.6,10,10.3,11.1l0.1,0.7h-10.4h-6.4h-10.4l0.1-0.7c8.8-1.1,10.1-8.8,10.3-11.1V22.6h0.1V15c-0.1,0.4,0.2-10.5-10.4-11.8
			l-0.1-0.7h16.8H218.8z"/>
		<path class="st0" d="M253.1,43.8l0.1,0.7h-15.8h-9.5l0.1-0.7c8.6-1.1,9.4-8.6,9.4-11v-0.2c0-0.4,0-0.6,0-0.5v-9.4v-0.1v-7.6
			c0,0.1,0-0.1,0-0.3v-1.3c-0.1-3.2-1.3-10.3-9.4-10.3l-0.1-0.7h9.5h6.4h9.5l-0.1,0.7c-10.6,0-9.4,12.2-9.4,11.8v7.6v0.1V32
			c0-0.1,0,0.1,0,0.5v0.2C243.7,35.2,244.5,42.7,253.1,43.8z"/>
		<path class="st0" d="M308.3,43.7c0,0.2,0,0.4,0,0.7h-20.6c0-0.2,0-0.4,0-0.7c1.3-0.4,4.4-1.7,5.2-4.9c0.4-1.7-0.3-4.2-0.5-5
			l-1.6-4.7h-15.5c-1,2.6-1.7,4.4-1.7,4.5c0,0-1.1,3.3-0.7,5.3c0.8,3.1,3.9,4.4,5.2,4.9c0,0.2,0,0.4,0,0.7h-20.4c0-0.2,0-0.4,0-0.7
			c2.4-0.5,9.5-2.8,12.4-10.4l11.9-31h6.3l10.6,31.2C301.7,41,306.7,43.1,308.3,43.7z M289.7,25.9l-6-18.4
			c-0.2,0.5-4.3,10.9-7.1,18.4H289.7z"/>
	</g>
	<g>
		<path class="st0" d="M46.7,120.8v0.7H25v-0.7c-0.1,0,7.4-1.3,5.7-5c-0.7-1.4-2.7-4.1-2.9-4.4l-8.6-11.2l-2.5,2.1v19.2H0l0.1-0.7
			c10.6-1.3,10.3-12.2,10.4-11.8v-9.4v-0.1v-7.6c-0.1,0.4,0.2-10.5-10.4-11.8L0,79.4h16.8v18.4c3.4-2.8,9.2-7.8,13.5-11.4
			c0.1-0.1,3.1-2.7,2.3-4.6c-0.7-1.6-4.6-1.6-4.3-1.6L28,79.4h16.7l-0.1,0.7c-1.1,0.2-2.5,0.7-6.2,3.7L34,87.7l-10.7,9.1L35,111
			C40.6,117.7,46.3,120.6,46.7,120.8z M46.7,120.8"/>
		<path class="st0" d="M99.1,120.7c0,0.2,0,0.4,0,0.7H78.4c0-0.2,0-0.4,0-0.7c1.3-0.4,4.4-1.7,5.2-4.9c0.4-1.7-0.3-4.2-0.5-5
			l-1.6-4.7H66c-1,2.6-1.7,4.4-1.7,4.5c0,0-1.1,3.3-0.7,5.3c0.8,3.1,3.9,4.4,5.2,4.9c0,0.2,0,0.4,0,0.7H48.4c0-0.2,0-0.4,0-0.7
			c2.4-0.5,9.5-2.8,12.4-10.4l11.9-31H79l10.6,31.2C92.4,118,97.4,120.1,99.1,120.7z M80.4,102.9l-6-18.4
			c-0.2,0.5-4.3,10.9-7.1,18.4H80.4z"/>
		<path class="st0" d="M149,121.1c-0.2,0.1-0.5,0.2-0.7,0.2c-1.6,0.4-4,0.2-4.7,0.1c-10.3-0.8-10.4-10.4-10.4-12.9
			c0-5.2-0.9-7.8-7.1-8.5c-2.2,0-4.5,0-5.8,0v21.4h-16.8l0.1-0.7c10.6-1.3,10.3-12.2,10.4-11.8v-9.4v-0.1v-7.6
			c-0.1,0.4,0.2-10.5-10.4-11.8l-0.1-0.7h16.7h10c12.8,0,11.9,9.6,11.9,10.5c0,0.9-0.5,6.1-6.6,9c-0.1,0.1-0.4,0.1-0.6,0.2
			c3,1.4,5.3,4.1,5.3,9.4c0,6.5,2.1,9.5,4.1,10.9c-0.4-0.6-0.5-1.3-0.5-2c0-2.2,1.7-3.8,3.9-3.8c2.1,0,3.8,1.7,3.8,3.8
			C151.4,119.5,150.4,120.5,149,121.1z M120.2,82.6v14.3c1.6,0,5,0,5.5,0c1.6,0,4.9-0.2,6.4-1.5c3-2.4,3.2-5.8,2.3-8.3
			c-0.8-2.2-3-4.5-7.1-4.6C126.7,82.6,123.8,82.6,120.2,82.6z"/>
		<path class="st0" d="M198.7,121.3h-24h-0.8h-15.1l0.1-0.7c10.6-1.4,9.4-12.2,9.4-11.8v-9.4v-0.1v-7.7v-2c-0.2-3.4-1.6-9.7-9.4-9.7
			l-0.1-0.7h9.5h6.4h9.5l-0.1,0.7c-8.2,0-9.3,7.6-9.4,10.6v1.1c0,0.1,0.1,0.1,0,0.1v7.7v0.1v18.1c1.6,0,6.5,0,6.8,0
			c11.8,0,15.2-6.1,16.4-14.4h0.7L198.7,121.3z"/>
	</g>
	<g>
		<path class="st0" d="M211.6,98.8c0.6,8.3,8.3,20.6,17.9,20.6c10,0,8.8-9.8,3.6-13.2c-6.4-4.2-20.3-5.8-20.3-16.6
			c0-13.3,14.7-10.7,14.7-10.7c6,0.1,7.7,1.7,9.5,1.7c2.9,0,3.2-2.5,3.5-3.7h0.6v18.7h-0.6c-0.5-2.1-5.6-12.7-13-13.6
			c-1.4-0.2-10.3-2-10.3,6.1c0,4.8,11.8,8.2,12.8,8.6c1.9,0.9,12.9,2.8,12.9,13.2c0,10.4-7.2,12.1-12.8,12.2s-8.7-1.9-12.1-4.7
			c-3.4-2.8-6.7,4.8-6.7,4.8h-0.5l0.1-23.5H211.6z"/>
		<path class="st0" d="M259.2,98.8c0.6,8.3,8.3,20.6,17.9,20.6c10,0,8.8-9.8,3.6-13.2c-6.4-4.2-20.3-5.8-20.3-16.6
			c0-13.3,14.7-10.7,14.7-10.7c6,0.1,7.7,1.7,9.5,1.7c2.9,0,3.2-2.5,3.5-3.7h0.6v18.7h-0.6c-0.5-2.1-5.6-12.7-13-13.6
			c-1.4-0.2-10.3-2-10.3,6.1c0,4.8,11.8,8.2,12.8,8.6c1.9,0.9,12.9,2.8,12.9,13.2c0,10.4-7.2,12.1-12.8,12.2s-8.7-1.9-12.1-4.7
			c-3.4-2.8-6.7,4.8-6.7,4.8h-0.5l0.1-23.5H259.2z"/>
		<path class="st0" d="M320.6,121.9c0,0-0.6,0.1-0.8,0.1c-0.3,0-0.8-0.1-0.8-0.1c-19.5-1.1-17.5-23.1-17.5-23.1
			c0-17.1,12.5-19.6,17.4-20c0.2-0.1,1.6-0.1,1.7,0c4.9,0.4,17.5,2.9,17.5,20C338.1,98.8,340.1,120.8,320.6,121.9z M329.6,99.7
			c0-16-5.2-17.9-9.8-17.9s-9.8,1.9-9.8,17.9c0,17.2,5.4,19.2,9.8,19.2C324.3,118.9,329.6,116.8,329.6,99.7z"/>
	</g>
	<g>
		<path class="st0" d="M393.3,79.3c0,0.2-0.1,0.6-0.1,0.8c-2.5,0-7.6,1.9-7.8,7.7c0,0.2,0,0.3,0,0.5c0,7.3,0,2,0,2v31.1h-3.2
			l-26.9-37.7v26.8c0,0,0,0.3,0,1c0,0.4,0,0.8,0,1.4c0,1.3,0.9,7.8,7.9,7.8c0,0.2,0.1,0.7,0.1,0.8H344c0-0.2,0.1-0.6,0.1-0.8
			c2.5,0,7.6-1.9,7.8-7.7c0-0.7,0-1.1,0-1.5V87.5c-0.2-1.1-1.5-7.5-7.9-7.5c0,0,0-0.5,0-0.7h10h1.1h5.2l22,30.4l-0.1-19.4h-0.1
			c0,0,0-0.7,0-2.3c0-1.3-0.9-7.8-7.9-7.8c-0.1-0.2-0.1-0.7-0.1-0.8h1.3h16.2H393.3z"/>
	</g>
</g>
</svg>
