<?xml version="1.0" standalone="no"?>
<!DOCTYPE svg PUBLIC "-//W3C//DTD SVG 20010904//EN"
 "http://www.w3.org/TR/2001/REC-SVG-20010904/DTD/svg10.dtd">
<svg version="1.0" xmlns="http://www.w3.org/2000/svg"
 width="310.000000pt" height="310.000000pt" viewBox="0 0 310.000000 310.000000"
 preserveAspectRatio="xMidYMid meet">
<metadata>
Created by potrace 1.11, written by Peter Selinger 2001-2013
</metadata>
<g transform="translate(0.000000,310.000000) scale(0.100000,-0.100000)"
fill="#000000" stroke="none">
<path d="M0 1550 l0 -1550 1550 0 1550 0 0 1550 0 1550 -1550 0 -1550 0 0
-1550z m1925 495 c-8 -93 -14 -170 -11 -172 2 -2 73 3 157 10 85 8 155 13 156
12 2 -1 -65 -69 -147 -150 -83 -82 -150 -154 -150 -159 0 -6 71 -82 158 -169
l157 -158 -55 5 c-150 16 -273 27 -276 23 -2 -2 5 -79 17 -172 11 -93 18 -175
17 -183 -2 -8 -81 59 -192 162 -187 174 -190 176 -210 158 -12 -10 -97 -87
-189 -171 -93 -84 -171 -150 -174 -148 -3 3 0 68 6 144 6 77 11 154 11 173 l0
33 -92 -7 c-51 -4 -122 -9 -158 -13 -59 -5 -64 -5 -51 10 7 9 17 15 21 12 4
-3 7 1 6 9 0 7 57 73 127 145 l128 131 -20 28 c-12 15 -79 88 -150 162 -71 74
-126 136 -121 138 5 2 77 -6 161 -17 84 -11 154 -19 156 -18 1 2 -5 79 -13
171 -9 91 -14 169 -11 172 3 4 87 -66 185 -155 99 -89 184 -161 188 -161 5 0
92 74 194 164 101 91 186 163 188 162 1 -2 -4 -79 -13 -171z"/>
<path d="M1470 1767 c-83 -27 -151 -138 -137 -223 15 -89 92 -166 181 -179 90
-14 190 37 234 119 44 84 4 211 -83 262 -52 30 -140 40 -195 21z"/>
</g>
</svg>
